<svg width="1378" height="115" viewBox="0 0 1378 115" fill="none" xmlns="http://www.w3.org/2000/svg">
<path d="M353.675 111.455C360.017 113.374 366.606 114.534 373.276 114.908C374.118 114.961 377.329 115 377.43 115H396.019C397.085 115.009 398.143 114.826 399.13 114.461C400.118 114.096 401.017 113.557 401.775 112.875C402.599 112.365 403.273 111.679 403.738 110.876C404.202 110.073 404.442 109.179 404.438 108.272V75.5446V51.9774V24.0695V23.5695H404.938H422.723M353.675 111.455L353.821 110.977C353.82 110.977 353.82 110.977 353.82 110.977M353.675 111.455L353.82 110.977M353.675 111.455C342.367 108.02 332.276 101.891 324.452 93.7033M353.82 110.977C360.123 112.884 366.673 114.037 373.304 114.408L373.307 114.409C373.715 114.435 374.714 114.457 375.64 114.474C376.099 114.482 376.536 114.488 376.863 114.493C376.969 114.494 377.063 114.496 377.143 114.497L377.263 114.498L377.381 114.499L377.416 114.5L377.426 114.5L377.429 114.5H377.43H396.019H396.024C397.03 114.508 398.027 114.336 398.957 113.992C399.888 113.649 400.731 113.142 401.44 112.503L401.473 112.473L401.512 112.449C402.269 111.981 402.884 111.354 403.305 110.626C403.726 109.898 403.942 109.091 403.938 108.274V108.272V75.5446V51.9774V23.5695V23.0695H404.438H422.721M353.82 110.977C342.591 107.566 332.577 101.481 324.814 93.3589M422.721 23.0695C422.721 23.0695 422.72 23.0695 422.719 23.0695L422.723 23.5695M422.721 23.0695H422.723V23.5695M422.721 23.0695L1378 89.025M422.723 23.5695C427.452 23.5318 432.039 25.0398 435.65 27.8195C438.953 30.589 440.799 33.7113 440.992 37.6239C440.916 39.559 440.402 41.459 439.482 43.2052C438.563 44.9515 437.259 46.5065 435.65 47.7734M1377.5 89.025V88.525H499.002C490.701 88.3792 483.353 87.1748 478.264 83.6765M1377.5 89.025H499.002H498.993C490.674 88.8788 483.198 87.6747 477.981 84.089M1377.5 89.025H1378M1377.5 89.025V114.5M477.981 84.089L478.264 83.6765M477.981 84.089C477.981 84.0889 477.981 84.0887 477.98 84.0886L478.264 83.6765M477.981 84.089C474.263 81.5424 470.052 77.5008 466.785 74.1189C465.148 72.4242 463.742 70.8884 462.745 69.7776C462.246 69.2222 461.85 68.7729 461.578 68.4632C461.471 68.3408 461.383 68.2401 461.316 68.1637L461.267 68.1082C461.232 68.0677 461.206 68.0382 461.189 68.0192L478.264 83.6765M1378 89.025V114.5H1377.5M1378 89.025L422.723 52.0158M1377.5 114.5H498.951C498.123 114.5 497.292 114.462 496.455 114.409L496.451 114.408C489.82 114.037 483.271 112.884 476.967 110.977M1377.5 114.5V115H498.951C498.108 115 497.266 114.961 496.423 114.908C489.753 114.534 483.164 113.374 476.823 111.455M476.967 110.977C465.738 107.566 455.723 101.48 447.96 93.3578M476.967 110.977L476.823 111.455M476.967 110.977C476.968 110.977 476.968 110.977 476.968 110.977L476.823 111.455M447.96 93.3578C446.325 91.6393 444.927 89.7384 443.507 87.8064C443.122 87.2821 442.735 86.7555 442.341 86.2296C440.507 83.7819 438.538 81.3737 435.952 79.4345M447.96 93.3578L447.599 93.7033M447.96 93.3578C447.961 93.3581 447.961 93.3583 447.961 93.3586L447.599 93.7033M435.952 79.4345C432.25 76.5857 427.555 75.0448 422.721 75.083M435.952 79.4345C435.951 79.434 435.95 79.4334 435.95 79.4329L435.65 79.833M435.952 79.4345C435.953 79.4352 435.954 79.436 435.955 79.4368L435.65 79.833M422.721 75.083H419.743M422.721 75.083C422.721 75.083 422.72 75.083 422.719 75.083L422.723 75.583M422.721 75.083H422.723V75.583M419.743 75.083V52.5158M419.743 75.083H419.243V52.5158H419.743M419.743 75.083V75.583H422.723M419.743 52.5158H422.717M419.743 52.5158V52.0158H422.723M422.717 52.5158C427.569 52.637 432.298 51.0872 435.959 48.166C435.96 48.1655 435.961 48.1648 435.962 48.1642L435.65 47.7734M422.717 52.5158H422.723V52.0158M422.717 52.5158C422.715 52.5157 422.713 52.5157 422.711 52.5156L422.723 52.0158M435.65 47.7734C432.082 50.6204 427.466 52.1357 422.723 52.0158M435.65 47.7734L422.723 52.0158M422.723 75.583C427.452 75.5452 432.039 77.0533 435.65 79.833M435.65 79.833C438.714 82.1296 440.905 85.1108 443.094 88.0886C444.517 90.0247 445.939 91.9592 447.599 93.7033M447.599 93.7033C455.424 101.891 465.515 108.02 476.823 111.455M324.814 93.3589L324.452 93.7033M324.814 93.3589C323.185 91.6438 321.792 89.747 320.375 87.8189C319.987 87.2905 319.598 86.7597 319.201 86.2297C317.368 83.7819 315.399 81.3738 312.813 79.4345M324.814 93.3589C324.814 93.3586 324.813 93.3582 324.813 93.3578L324.452 93.7033M324.452 93.7033C322.798 91.9629 321.381 90.0328 319.962 88.1009C317.772 85.119 315.579 82.1328 312.511 79.833M312.813 79.4345C312.814 79.4352 312.815 79.4359 312.816 79.4366L312.511 79.833M312.813 79.4345C309.105 76.5847 304.405 75.0438 299.565 75.083M312.813 79.4345C312.812 79.434 312.811 79.4334 312.811 79.4329L312.511 79.833M312.511 79.833C308.894 77.0522 304.302 75.5443 299.568 75.583M299.565 75.083H299.568V75.583M299.565 75.083H296.596M299.565 75.083C299.565 75.083 299.564 75.083 299.563 75.083L299.568 75.583M299.568 75.583H296.596V75.083M296.596 75.083H296.096M296.596 75.083V52.5158M296.096 75.083L338.113 68.0898L338.007 67.9764C336.753 66.634 335.404 65.3676 333.968 64.1854L333.489 63.7918L333.975 63.4073C338.039 60.1913 341.295 56.2233 343.528 51.7722C345.762 47.3213 346.921 42.489 346.931 37.5998V37.5944C346.994 32.7326 345.688 27.9345 343.134 23.6571L343.129 23.6485L343.124 23.6398C340.662 19.119 337.274 15.064 333.14 11.6936C328.676 8.19649 323.599 5.40239 318.12 3.42837C312.179 1.45284 305.897 0.464126 299.571 0.50997L299.568 0.509997L266.51 0.509984H266.502L266.494 0.509745C262.699 0.392376 259.002 1.58519 256.143 3.83951L256.139 3.84259C254.872 4.82142 253.864 6.04234 253.186 7.41402C252.509 8.78545 252.177 10.2747 252.212 11.774L252.213 11.7859L252.213 88.5019V89.0019H251.713H0.5V114.5H272.872H272.876C273.882 114.508 274.88 114.336 275.81 113.992C276.74 113.649 277.584 113.142 278.293 112.503L278.326 112.473L278.364 112.449C279.122 111.981 279.736 111.354 280.157 110.626C280.578 109.898 280.795 109.091 280.79 108.274V108.272V75.5446V51.9774V23.5695V23.0695H281.29H299.566M296.096 75.083V52.5158H296.596M296.096 75.083L299.568 52.0158M296.596 52.5158H299.561M296.596 52.5158V52.0158H299.568M299.561 52.5158C304.419 52.6387 309.155 51.0884 312.822 48.1649C314.479 46.854 315.826 45.2448 316.777 43.4351C317.729 41.6249 318.263 39.6538 318.345 37.6442L318.346 37.6217L318.344 37.5991C318.142 33.5154 316.198 30.2727 312.833 27.4372L312.825 27.43L312.816 27.4232C309.107 24.572 304.406 23.0304 299.566 23.0695M299.561 52.5158H299.568V52.0158M299.561 52.5158C299.559 52.5157 299.557 52.5157 299.555 52.5156L299.568 52.0158M299.566 23.0695C299.565 23.0695 299.564 23.0695 299.563 23.0695L299.568 23.5695M299.566 23.0695H299.568V23.5695M299.568 23.5695C304.302 23.5308 308.894 25.0387 312.511 27.8195M299.568 23.5695H281.79H281.29V24.0695V51.9774V75.5446V108.272C281.295 109.179 281.055 110.073 280.59 110.876C280.126 111.679 279.452 112.365 278.627 112.875C277.87 113.557 276.971 114.096 275.983 114.461C274.995 114.826 273.938 115.009 272.872 115L312.511 27.8195M312.511 27.8195C315.797 30.589 317.651 33.7113 317.845 37.6239C317.766 39.5579 317.252 41.4566 316.335 43.2025C315.417 44.9483 314.116 46.5041 312.511 47.7734V27.8195ZM457.864 63.5023C457.838 63.4803 457.811 63.4584 457.784 63.4364L457.466 63.8224L457.777 64.214C457.805 64.1925 457.832 64.1709 457.859 64.1493C459.061 65.1646 460.2 66.2409 461.27 67.3732C461.17 67.4449 461.083 67.5401 461.037 67.6582H461.537L461.903 67.3183C461.9 67.3149 461.897 67.3114 461.894 67.308L457.864 63.5023Z" stroke="#0A515C"/>
</svg>
