<svg width="1378" height="115" viewBox="0 0 1378 115" fill="none" xmlns="http://www.w3.org/2000/svg">
<rect width="1378" height="115" fill="#1E1E1E"/>
<mask id="path-1-inside-1_0_1" fill="white">
<path d="M0 115H272.872C273.938 115.009 274.995 114.826 275.983 114.461C276.971 114.096 277.87 113.557 278.627 112.875C279.452 112.365 280.126 111.679 280.59 110.876C281.055 110.073 281.295 109.179 281.29 108.272V75.5446V51.9774V23.5695H299.568C304.302 23.5308 308.894 25.0387 312.511 27.8195C315.797 30.589 317.651 33.7113 317.845 37.6239C317.766 39.5579 317.252 41.4566 316.335 43.2025C315.417 44.9483 314.116 46.5041 312.511 47.7734C308.938 50.6221 304.315 52.1373 299.568 52.0158H296.096V75.583H299.568C304.302 75.5443 308.894 77.0522 312.511 79.833C317.567 83.6228 320.247 89.2768 324.452 93.7033C332.276 101.891 342.367 108.02 353.675 111.455C360.017 113.374 366.606 114.534 373.276 114.908C374.118 114.961 377.329 115 377.43 115H396.019C397.085 115.009 398.143 114.826 399.13 114.461C400.118 114.096 401.017 113.557 401.775 112.875C402.599 112.365 403.273 111.679 403.738 110.876C404.202 110.073 404.442 109.179 404.438 108.272V75.5446V51.9774V23.5695H422.723C427.452 23.5318 432.039 25.0398 435.65 27.8195C438.953 30.589 440.799 33.7113 440.992 37.6239C440.916 39.559 440.402 41.459 439.482 43.2052C438.563 44.9515 437.258 46.5065 435.65 47.7734C432.082 50.6204 427.466 52.1357 422.723 52.0158H419.243V75.583H422.723C427.452 75.5452 432.039 77.0533 435.65 79.833C440.706 83.6228 443.386 89.2768 447.599 93.7033C455.424 101.891 465.515 108.02 476.823 111.455C483.164 113.374 489.753 114.534 496.423 114.908C497.266 114.961 498.108 115 498.951 115H1378V88.525H499.002C490.701 88.3792 483.353 87.1747 478.264 83.6765C470.915 78.6439 461.537 67.6352 461.537 67.6582C460.276 66.2979 458.916 65.0164 457.466 63.8224C461.58 60.5562 464.879 56.5265 467.14 52.0038C469.402 47.4811 470.574 42.5701 470.578 37.6008C470.638 32.6328 469.291 27.7345 466.668 23.3777C464.188 18.8001 460.774 14.6943 456.607 11.2796C447.26 3.79356 435.169 -0.227924 422.723 0.00998359H389.657C385.741 -0.116733 381.917 1.11122 378.955 3.44686C377.634 4.47244 376.581 5.75287 375.871 7.19525C375.161 8.63763 374.813 10.2058 374.851 11.7859V88.5019H372.214C363.922 88.3562 360.197 87.1517 355.099 83.6535C347.777 78.6209 338.406 67.6122 338.372 67.6352C337.104 66.2766 335.738 64.9952 334.285 63.7994C338.404 60.5399 341.708 56.5154 343.975 51.9964C346.243 47.4775 347.421 42.5689 347.431 37.6008C347.495 32.6444 346.164 27.7556 343.563 23.4007C341.068 18.8193 337.636 14.7132 333.451 11.3026C328.942 7.76928 323.815 4.94806 318.283 2.95588C312.289 0.961541 305.95 -0.0362691 299.568 0.00998359H266.51C262.602 -0.110868 258.789 1.11671 255.833 3.44686C254.508 4.47026 253.451 5.7499 252.738 7.19252C252.025 8.63514 251.675 10.2044 251.713 11.7859V88.5019H0V115Z"/>
</mask>
<path d="M0 115H272.872C273.938 115.009 274.995 114.826 275.983 114.461C276.971 114.096 277.87 113.557 278.627 112.875C279.452 112.365 280.126 111.679 280.59 110.876C281.055 110.073 281.295 109.179 281.29 108.272V75.5446V51.9774V23.5695H299.568C304.302 23.5308 308.894 25.0387 312.511 27.8195C315.797 30.589 317.651 33.7113 317.845 37.6239C317.766 39.5579 317.252 41.4566 316.335 43.2025C315.417 44.9483 314.116 46.5041 312.511 47.7734C308.938 50.6221 304.315 52.1373 299.568 52.0158H296.096V75.583H299.568C304.302 75.5443 308.894 77.0522 312.511 79.833C317.567 83.6228 320.247 89.2768 324.452 93.7033C332.276 101.891 342.367 108.02 353.675 111.455C360.017 113.374 366.606 114.534 373.276 114.908C374.118 114.961 377.329 115 377.43 115H396.019C397.085 115.009 398.143 114.826 399.13 114.461C400.118 114.096 401.017 113.557 401.775 112.875C402.599 112.365 403.273 111.679 403.738 110.876C404.202 110.073 404.442 109.179 404.438 108.272V75.5446V51.9774V23.5695H422.723C427.452 23.5318 432.039 25.0398 435.65 27.8195C438.953 30.589 440.799 33.7113 440.992 37.6239C440.916 39.559 440.402 41.459 439.482 43.2052C438.563 44.9515 437.258 46.5065 435.65 47.7734C432.082 50.6204 427.466 52.1357 422.723 52.0158H419.243V75.583H422.723C427.452 75.5452 432.039 77.0533 435.65 79.833C440.706 83.6228 443.386 89.2768 447.599 93.7033C455.424 101.891 465.515 108.02 476.823 111.455C483.164 113.374 489.753 114.534 496.423 114.908C497.266 114.961 498.108 115 498.951 115H1378V88.525H499.002C490.701 88.3792 483.353 87.1747 478.264 83.6765C470.915 78.6439 461.537 67.6352 461.537 67.6582C460.276 66.2979 458.916 65.0164 457.466 63.8224C461.58 60.5562 464.879 56.5265 467.14 52.0038C469.402 47.4811 470.574 42.5701 470.578 37.6008C470.638 32.6328 469.291 27.7345 466.668 23.3777C464.188 18.8001 460.774 14.6943 456.607 11.2796C447.26 3.79356 435.169 -0.227924 422.723 0.00998359H389.657C385.741 -0.116733 381.917 1.11122 378.955 3.44686C377.634 4.47244 376.581 5.75287 375.871 7.19525C375.161 8.63763 374.813 10.2058 374.851 11.7859V88.5019H372.214C363.922 88.3562 360.197 87.1517 355.099 83.6535C347.777 78.6209 338.406 67.6122 338.372 67.6352C337.104 66.2766 335.738 64.9952 334.285 63.7994C338.404 60.5399 341.708 56.5154 343.975 51.9964C346.243 47.4775 347.421 42.5689 347.431 37.6008C347.495 32.6444 346.164 27.7556 343.563 23.4007C341.068 18.8193 337.636 14.7132 333.451 11.3026C328.942 7.76928 323.815 4.94806 318.283 2.95588C312.289 0.961541 305.95 -0.0362691 299.568 0.00998359H266.51C262.602 -0.110868 258.789 1.11671 255.833 3.44686C254.508 4.47026 253.451 5.7499 252.738 7.19252C252.025 8.63514 251.675 10.2044 251.713 11.7859V88.5019H0V115Z" stroke="#0A515C" stroke-width="2" mask="url(#path-1-inside-1_0_1)"/>
</svg>
